<?xml version="1.0" encoding="utf-8"?>
<!-- Generator: Adobe Illustrator 24.3.0, SVG Export Plug-In . SVG Version: 6.00 Build 0)  -->
<svg version="1.1" id="Capa_1" xmlns="http://www.w3.org/2000/svg" xmlns:xlink="http://www.w3.org/1999/xlink" x="0px" y="0px"
	 viewBox="0 0 400 100" style="enable-background:new 0 0 400 100;" xml:space="preserve">
<style type="text/css">
	.st0{fill:#005555;}
	.st1{fill:#639A67;}
	.st2{display:none;}
	.st3{display:inline;fill:#005555;}
	.st4{display:none;fill:#005555;}
</style>
<g>
	<path class="st0" d="M52.6,35.6c-0.8-0.3-1.4-0.8-1.6-1.4c-0.2-0.6-0.2-1.3,0-2c0.2-0.7,0.6-1.5,1.1-2.3c0.5-0.8,1.1-1.5,1.8-2.2
		c0.7-0.7,1.3-1.2,2-1.7c0.7-0.5,1.2-0.7,1.7-0.8c1.2-0.1,2.2-0.1,2.9,0.2c0.7,0.3,1.2,0.7,1.5,1.3c0.3,0.6,0.3,1.2,0.2,1.9
		c-0.1,0.7-0.4,1.5-0.8,2.2c-0.4,0.7-0.9,1.5-1.6,2.2c-0.7,0.7-1.4,1.3-2.2,1.7c-0.8,0.5-1.6,0.8-2.5,0.9
		C54.4,36,53.5,35.9,52.6,35.6z M52.3,34.1c0.2,0.6,0.5,0.9,1,0.9c0.5,0.1,1.1-0.1,1.8-0.3s1.4-0.7,2.2-1.3c0.8-0.6,1.5-1.2,2.1-1.8
		c0.6-0.7,1.2-1.3,1.6-2c0.4-0.7,0.6-1.2,0.6-1.7c0-0.5-0.3-0.9-0.8-1.1s-1.4-0.3-2.7-0.1c-0.3,0.2-0.6,0.5-1.1,0.8
		s-0.9,0.7-1.4,1.1c-0.5,0.4-0.9,0.8-1.4,1.3c-0.5,0.5-0.9,0.9-1.2,1.4c-0.3,0.5-0.6,1-0.7,1.5C52.1,33.1,52.1,33.6,52.3,34.1z"/>
</g>
<path class="st1" d="M82.6,68c-1.1-2-2.6-3.6-4.5-4.8c-2-1.2-4.3-1.7-7-1.7c-2.7,0-5.7,1-8.8,2.8c-0.6,0-1.8,0.1-3.4,0.2
	s-3.3,0.3-5.1,0.5c-1.8,0.2-3.5,0.3-5.2,0.5c-1.6,0.2-2.7,0.3-3.4,0.4c-1.9,0.2-3.9,0.6-6.1,1.2c-2.2,0.6-4.1,1.4-5.9,2.5
	c-1.7,1.1-3,2.5-3.9,4.2c-0.9,1.7-1,3.8-0.3,6.2c0.4,1.3,1,2.5,2,3.6c1,1.1,2.1,2,3.4,2.8c1.3,0.8,2.7,1.4,4.1,1.9
	c1.4,0.5,2.8,0.8,4.1,1c7.4,1,13.6,1.3,18.8,0.7c5.2-0.6,9.4-1.6,12.7-3.1c3.3-1.5,5.7-3.4,7.3-5.7c1.6-2.2,2.4-4.5,2.6-6.8
	C84.1,72.2,83.6,70,82.6,68z M63.2,65.7c2.8-1.6,5.5-2.5,7.8-2.5l0.2,0c2.3,0,4.2,0.5,5.8,1.4c1.5,0.9,2.7,2.1,3.6,3.7
	c-0.2-0.2-0.4-0.4-0.6-0.6l-0.4-0.4L79,67.1c-1.5-0.3-3.4-0.5-6-0.8c-2.5-0.3-5.4-0.4-8.5-0.6C64,65.8,63.6,65.8,63.2,65.7
	L63.2,65.7z M80.7,80.4c-1.2,1.5-3,2.8-5.3,3.8c-2.3,1.1-5,1.9-7.9,2.5c-2.9,0.6-6.1,1-9.4,1.3c-3.3,0.2-6.5,0.2-9.6,0
	c-3.1-0.2-6-0.7-8.6-1.4c-2.6-0.7-4.8-1.5-6.5-2.6c-1.7-1.1-2.7-2.4-3.1-4c-0.4-1.5,0-3.3,1.4-5.2c1.2-1.8,3-3.2,5.5-4.2
	c2.4-1.1,5.1-1.8,8.1-2.4c3-0.5,6.2-0.8,9.5-0.9c3.3-0.1,6.5-0.1,9.6,0c3.1,0.1,5.9,0.4,8.4,0.6c2.5,0.3,4.5,0.6,5.9,0.9
	c2.2,2.4,3.3,4.5,3.5,6.5C82.5,77.2,82,78.9,80.7,80.4z"/>
<g>
	<path class="st0" d="M51.1,78.9c-0.6-0.4-0.9-0.9-1-1.6c-0.1-0.6,0.1-1.3,0.4-2c1.5-2.9,3-5.6,4.6-8.1c1.6-2.5,3.2-4.9,4.7-7.3
		c1.6-2.4,3-4.9,4.4-7.5c1.4-2.6,2.6-5.5,3.6-8.7c2.8-6.5,4.5-12,5.3-16.5c0.8-4.4,0.8-8,0.2-10.6c-0.6-2.7-1.9-4.5-3.6-5.5
		c-1.8-1-3.8-1.4-6.1-1.2c-2.3,0.2-4.7,1.1-7.2,2.4c-2.5,1.4-4.8,3.2-7,5.4c-2.2,2.2-4,4.7-5.5,7.6c-1.5,2.9-2.4,5.9-2.6,9.1
		c0,0.1,0.1,0.3,0.1,0.5c0.1,0.2,0.1,0.5,0.2,0.7c0.1,0.2,0.2,0.5,0.3,0.7c0.1,0.2,0.2,0.4,0.2,0.4c0.9,3.5,1.6,6.7,2,9.3
		c0.5,2.7,0.9,5.2,1.4,7.7c0.5,2.4,1,5,1.8,7.6c0.7,2.6,1.8,5.6,3.2,9c-0.5,0.7-1,1.1-1.5,1c-0.5-0.1-0.9-0.3-1.4-0.9
		c-0.4-0.5-0.9-1.2-1.2-2c-0.4-0.8-0.7-1.7-1-2.5c-0.3-0.8-0.5-1.6-0.7-2.4s-0.3-1.2-0.4-1.5c-0.3-1.1-0.7-2.6-1.1-4.4
		c-0.4-1.8-0.8-3.8-1.2-5.8c-0.4-2-0.8-4-1.2-5.9c-0.4-1.9-0.8-3.4-1.1-4.5c-1.2-0.8-1.9-1.8-2.4-2.7c-0.4-1-0.6-2-0.6-3.1
		c0-1.1,0.2-2.2,0.5-3.3c0.3-1.1,0.6-2.3,1-3.4c1-3.2,2.3-6.1,4.2-8.8c1.8-2.7,4-5.1,6.5-7.1c2.5-2,5.3-3.6,8.4-4.8
		c3.1-1.2,6.4-1.7,9.9-1.7c2.9,0.2,5.2,1,6.8,2.5c1.6,1.5,2.7,3.5,3.3,6c0.6,2.5,0.7,5.3,0.4,8.5c-0.3,3.2-0.9,6.6-1.9,10.2
		c-0.9,3.6-2.1,7.2-3.6,11c-1.4,3.7-3,7.4-4.6,10.8c-1.6,3.5-3.3,6.7-5.1,9.8c-1.7,3-3.4,5.6-4.9,7.8c-1.5,2.1-2.9,3.8-4.1,4.8
		C52.6,79,51.7,79.3,51.1,78.9z"/>
</g>
<g>
	<g>
		<path class="st0" d="M117,71.2c-1.2,0-2-0.4-2.2-1.1c-0.3-0.8-0.2-1.6,0.2-2.2c0.4-0.6,0.9-1.1,1.6-1.5c2.9-1.5,5.8-2.7,8.6-3.7
			c2.8-1,5.5-2,8.2-3c2.7-1,5.4-2.1,8-3.4c2.6-1.2,5.4-2.8,8.1-4.8c6.1-3.5,10.8-6.9,14.1-9.9c3.2-3,5.4-5.8,6.4-8.3
			c1-2.4,1.2-4.5,0.4-6.3c-0.8-1.8-2.1-3.3-4-4.4c-1.9-1.1-4.3-1.9-7.1-2.3c-1.3-0.2-2.6-0.3-3.9-0.3c-1.6,0-3.2,0.1-4.8,0.4
			c-3,0.5-6,1.4-8.8,2.7c-2.8,1.4-5.3,3.2-7.4,5.6c0,0-0.1,0.2-0.1,0.4c-0.1,0.2-0.2,0.5-0.2,0.7l-0.2,0.8c-0.1,0.2-0.1,0.3-0.1,0.4
			v0.1l0,0c-1.4,3.4-2.7,6.3-4,8.7c-1.2,2.4-2.4,4.7-3.5,7c-1.1,2.2-2.1,4.6-3.1,7.1c-1,2.5-1.9,5.5-2.8,9.1l-0.1,0.2l-0.2,0.1
			c-0.4,0.1-0.8,0.2-1.1,0.2c-0.4,0-0.8-0.1-1.1-0.4c-0.4-0.4-0.7-1-0.7-1.8c0-0.7,0-1.5,0.3-2.5c0.2-0.9,0.5-1.8,0.7-2.6
			c0.3-0.8,0.6-1.6,0.9-2.3c0.3-0.7,0.5-1.2,0.6-1.5c0.4-1.1,1-2.5,1.8-4.2c0.8-1.7,1.6-3.5,2.5-5.4c0.9-1.9,1.7-3.7,2.5-5.4
			c0.8-1.7,1.4-3,1.8-4.1c-0.4-1.4-0.5-2.6-0.2-3.7c0.3-1.1,0.8-2.1,1.4-3c0.7-0.9,1.5-1.7,2.5-2.5c0.9-0.7,1.9-1.4,2.8-2.1
			c2.7-2,5.6-3.5,8.8-4.6c3.1-1.1,6.3-1.7,9.6-1.8c0.4,0,0.7,0,1.1,0c2.9,0,5.8,0.4,8.6,1.3c3.2,0.9,6.3,2.5,9.1,4.6
			c2.3,1.9,3.7,4.1,4.1,6.4c0.4,2.3,0.1,4.6-1,7c-1,2.4-2.7,4.8-4.9,7.2c-2.2,2.4-4.8,4.8-7.7,7.1c-2.9,2.3-6.1,4.5-9.5,6.7
			c-3.4,2.1-6.8,4.1-10.2,5.9c-3.4,1.8-6.7,3.4-9.9,4.8c-3.2,1.4-6.1,2.5-8.6,3.3c-2.5,0.8-4.6,1.3-6.2,1.5
			C117.6,71.2,117.3,71.2,117,71.2z"/>
		<path class="st0" d="M115.2,70c-0.2-0.7-0.2-1.3,0.1-1.9c0.3-0.5,0.8-1,1.5-1.4c2.9-1.5,5.7-2.7,8.5-3.7c2.8-1,5.5-2,8.2-3
			c2.7-1,5.4-2.1,8.1-3.4c2.7-1.2,5.4-2.8,8.2-4.8c6.1-3.6,10.9-6.9,14.1-10c3.3-3.1,5.5-5.9,6.5-8.4c1.1-2.5,1.2-4.7,0.4-6.6
			c-0.8-1.9-2.2-3.4-4.1-4.6c-2-1.2-4.4-2-7.2-2.4c-2.8-0.4-5.8-0.4-8.8,0.1c-3,0.5-6,1.4-8.9,2.8c-2.9,1.4-5.4,3.3-7.5,5.7
			c0,0.1-0.1,0.3-0.2,0.5c-0.1,0.2-0.2,0.5-0.2,0.7c-0.1,0.3-0.1,0.5-0.2,0.8c-0.1,0.3-0.1,0.4-0.1,0.5c-1.4,3.4-2.7,6.3-4,8.7
			c-1.2,2.4-2.4,4.7-3.5,7c-1.1,2.2-2.1,4.6-3.1,7.1c-1,2.5-1.9,5.5-2.8,9.1c-0.8,0.3-1.4,0.3-1.8-0.1c-0.4-0.3-0.6-0.8-0.6-1.5
			c0-0.7,0-1.5,0.2-2.4c0.2-0.9,0.5-1.8,0.7-2.6s0.6-1.6,0.8-2.3s0.5-1.2,0.6-1.5c0.4-1.1,1-2.5,1.8-4.2c0.8-1.7,1.6-3.5,2.5-5.4
			c0.9-1.9,1.7-3.7,2.5-5.4c0.8-1.7,1.4-3.1,1.8-4.2c-0.4-1.4-0.5-2.6-0.2-3.6c0.3-1.1,0.7-2,1.4-2.9c0.7-0.9,1.5-1.7,2.4-2.4
			c0.9-0.7,1.9-1.4,2.8-2.1c2.7-2,5.6-3.5,8.6-4.6c3.1-1.1,6.2-1.7,9.5-1.8c3.2-0.1,6.4,0.3,9.6,1.2c3.2,0.9,6.2,2.5,9,4.6
			c2.2,1.9,3.6,3.9,4,6.1c0.4,2.2,0.1,4.5-0.9,6.8c-1,2.3-2.6,4.7-4.8,7.1s-4.7,4.7-7.6,7c-2.9,2.3-6.1,4.5-9.5,6.6
			c-3.4,2.1-6.8,4.1-10.2,5.9c-3.4,1.8-6.7,3.4-9.9,4.8c-3.2,1.4-6.1,2.5-8.6,3.3c-2.5,0.8-4.6,1.3-6.2,1.4
			C116.3,70.9,115.4,70.7,115.2,70z"/>
		<path class="st0" d="M169,72c-1.6,0-3-0.2-4.1-0.6c-1.5-0.5-2.6-1.3-3.4-2.3c-0.8-1-1.3-2.1-1.5-3.4c-0.2-1.2-0.3-2.5-0.1-3.8
			c0.2-1.3,0.4-2.6,0.8-3.8l0-0.1l0.1-0.1c1.4-1.5,3-3.2,4.7-5.2c1.8-1.9,3.6-3.9,5.6-5.8c2-1.9,4.1-3.7,6.2-5.3
			c2.2-1.6,4.4-2.9,6.6-3.7c0.4-0.2,0.8-0.3,1.1-0.3c0.4,0,0.8,0.1,1.1,0.4c0.5,0.4,0.9,1,1.1,1.9c0.2,0.8,0.3,1.7,0.3,2.7
			c0,1-0.1,2-0.3,2.9c-0.1,1-0.3,1.8-0.6,2.6c-0.3,0.8-0.5,1.4-0.8,1.7c-0.6,0.7-1.7,1.5-3.4,2.4c-1.6,0.9-3.4,1.9-5.4,2.9
			c-2,1-3.9,2.1-5.9,3.3c-1.9,1.1-3.5,2.2-4.8,3.3c-1.2,1-1.9,2.1-2.1,3.1c-0.2,0.9,0.4,1.7,1.7,2.5c0.5,0.1,1.1,0.1,1.7,0.1
			c1.2,0,2.5-0.1,4-0.3c2.3-0.3,4.6-0.8,6.9-1.4c2.3-0.6,4.6-1.2,6.8-1.8c2.2-0.6,4-1.1,5.4-1.5l0.2-0.1l1.3,1.2l-0.2,0.3
			c-1.1,1.4-2.8,2.7-5.2,3.8c-2.4,1.1-4.9,2.1-7.7,2.8c-2.7,0.7-5.4,1.2-8,1.4C170.4,71.9,169.7,72,169,72z M181.8,44.6
			c-0.1,0-0.3,0.2-0.8,0.5c-0.7,0.4-1.5,1-2.4,1.7c-1,0.7-2,1.5-3.1,2.4c-1.1,0.9-2.1,1.7-3,2.4c-0.9,0.7-1.7,1.4-2.3,1.9
			c-0.1,0.1-0.1,0.1-0.2,0.2c0.6,0,1.2-0.1,2-0.4c1.2-0.3,2.4-0.8,3.7-1.5c1.3-0.6,2.5-1.4,3.6-2.2c1.1-0.8,2-1.6,2.7-2.4
			c0.6-0.7,0.9-1.4,1-1.9C182.9,45.1,182.5,44.8,181.8,44.6z"/>
		<path class="st0" d="M165,71c-1.4-0.5-2.5-1.2-3.2-2.1c-0.7-1-1.2-2-1.4-3.2c-0.2-1.2-0.3-2.4-0.1-3.7c0.2-1.3,0.4-2.5,0.8-3.7
			c1.4-1.5,3-3.2,4.7-5.2c1.8-1.9,3.6-3.9,5.6-5.7c2-1.9,4-3.6,6.2-5.2c2.1-1.6,4.3-2.8,6.5-3.7c0.7-0.3,1.3-0.3,1.8,0
			c0.4,0.4,0.8,0.9,0.9,1.7c0.2,0.8,0.3,1.6,0.2,2.6c0,1-0.1,1.9-0.2,2.9c-0.1,0.9-0.3,1.8-0.6,2.5c-0.2,0.8-0.5,1.3-0.7,1.5
			c-0.6,0.7-1.7,1.4-3.3,2.3c-1.6,0.9-3.4,1.9-5.4,2.9s-3.9,2.1-5.9,3.3s-3.6,2.2-4.9,3.3c-1.3,1.1-2,2.2-2.2,3.3
			c-0.2,1.1,0.4,2.1,2,3c1.6,0.2,3.5,0.1,5.8-0.2c2.3-0.4,4.6-0.8,7-1.4c2.4-0.6,4.7-1.2,6.9-1.8c2.2-0.6,4-1.1,5.4-1.5l0.8,0.8
			c-1,1.4-2.7,2.6-5.1,3.7c-2.3,1.1-4.9,2.1-7.6,2.8c-2.7,0.7-5.4,1.2-7.9,1.4C168.5,71.7,166.5,71.5,165,71z M181.8,44.2
			c0,0-0.4,0.2-1.1,0.6c-0.7,0.4-1.5,1-2.4,1.8c-1,0.7-2,1.5-3.1,2.4c-1.1,0.9-2.1,1.7-3,2.4c-0.9,0.8-1.7,1.4-2.3,1.9
			c-0.6,0.5-0.9,0.8-0.8,0.8c0.7,0.1,1.7,0,2.9-0.3s2.4-0.9,3.7-1.5c1.3-0.7,2.5-1.4,3.7-2.2c1.2-0.8,2.1-1.6,2.8-2.4
			c0.7-0.8,1-1.5,1.1-2.1C183.3,44.9,182.8,44.4,181.8,44.2z"/>
		<path class="st0" d="M218.3,72.1c-1.3,0-2.5-0.3-3.6-0.8c-2.4-1-4.1-2.5-4.8-4.3c-0.8-1.8-1-3.8-0.8-5.9c0.2-2.1,0.8-4.2,1.8-6.3
			c0.9-2.1,1.9-3.9,2.9-5.5c0.3-0.5,0.9-1.5,1.8-2.9c0.9-1.4,1.8-2.8,2.8-4.3c1-1.5,2-3,2.9-4.3c0.9-1.3,1.5-2.2,1.9-2.7
			c0.6-3.6,1.7-6.5,3.4-8.7c1.7-2.2,3.7-3.7,5.9-4.5c1.4-0.5,2.9-0.8,4.3-0.8c0.8,0,1.6,0.1,2.5,0.2c2.3,0.5,4.4,1.5,6.1,3.1
			c1.7,1.6,3,3.8,3.8,6.5c0.8,2.7,0.7,5.9-0.2,9.4c-0.9,3.5-2.8,7.6-5.6,11.9c-2.8,4.4-7,9.1-12.4,14.2c-1,0.9-2.1,1.8-3.4,2.6
			c-1.3,0.8-2.7,1.5-4.2,2c-1.5,0.5-2.9,0.8-4.4,0.9C218.8,72.1,218.6,72.1,218.3,72.1z M238,26.1c-1.1,0.9-2.5,2.3-4.2,4
			c-1.8,1.8-3.7,3.9-5.7,6.1c-2,2.3-4,4.8-6,7.4c-2,2.6-3.8,5.3-5.3,7.9c-1.5,2.6-2.7,5.1-3.5,7.5c-0.8,2.4-1,4.5-0.6,6.3
			c0.4,2,1.3,3.2,2.4,3.7c0.5,0.2,1.1,0.3,1.6,0.3l0,0c0.8,0,1.7-0.2,2.7-0.6c1.7-0.7,3.7-1.9,5.7-3.5c2.1-1.7,4.2-3.7,6.3-5.9
			c2.1-2.2,4.1-4.7,6-7.4c1.9-2.6,3.6-5.3,5-7.9c1.4-2.6,2.5-5.1,3.2-7.5c0.7-2.3,1-4.4,0.7-6c-0.2-1.6-1-2.9-2.3-3.7
			c-0.9-0.6-2.3-0.9-3.9-0.9C239.6,26,238.9,26,238,26.1z"/>
		<path class="st0" d="M214.9,71c-2.3-1-3.9-2.4-4.6-4.1c-0.8-1.8-1-3.7-0.8-5.7c0.2-2,0.8-4.1,1.7-6.2c0.9-2.1,1.9-3.9,2.8-5.5
			c0.3-0.6,0.9-1.5,1.8-2.9c0.9-1.4,1.8-2.8,2.8-4.3c1-1.5,2-3,2.9-4.3s1.6-2.3,1.9-2.8c0.6-3.6,1.7-6.5,3.4-8.6
			c1.7-2.1,3.6-3.6,5.7-4.4c2.1-0.8,4.3-1,6.6-0.5c2.2,0.4,4.2,1.5,5.9,3c1.7,1.6,2.9,3.7,3.7,6.3c0.7,2.6,0.7,5.7-0.2,9.2
			c-0.9,3.5-2.7,7.5-5.5,11.8s-6.9,9.1-12.4,14.1c-0.9,0.9-2.1,1.7-3.3,2.6c-1.3,0.8-2.6,1.5-4.1,2c-1.4,0.5-2.9,0.8-4.3,0.9
			C217.5,71.8,216.2,71.6,214.9,71z M212.4,65.5c0.5,2.1,1.4,3.4,2.7,3.9c1.3,0.5,2.9,0.4,4.6-0.3c1.8-0.7,3.7-1.9,5.8-3.6
			c2.1-1.7,4.2-3.7,6.3-5.9c2.1-2.3,4.1-4.7,6-7.4c1.9-2.7,3.6-5.3,5-7.9c1.4-2.6,2.5-5.1,3.3-7.5c0.7-2.4,1-4.5,0.7-6.2
			c-0.3-1.8-1.1-3.1-2.5-4c-1.4-0.9-3.6-1.1-6.6-0.8c-1.1,0.9-2.5,2.3-4.3,4.1c-1.8,1.8-3.7,3.9-5.7,6.2c-2,2.3-4,4.8-6,7.4
			c-2,2.6-3.8,5.3-5.3,7.9c-1.5,2.6-2.7,5.2-3.5,7.6C212.2,61.4,212,63.6,212.4,65.5z"/>
		<path class="st0" d="M249.2,70.2c-0.1,0-0.2,0-0.8-0.4c-0.4-0.2-0.6-0.4-0.8-0.4c-0.3-0.1-0.4-0.4-0.2-2.1c0.1-1.1,0.3-2.4,0.5-4
			c0.2-1.6,0.5-3.4,0.9-5.3c0.4-1.9,0.8-3.8,1.2-5.5c0.4-1.8,0.9-3.3,1.4-4.7c0.5-1.4,1-2.3,1.5-2.9c0.3-0.3,0.5-0.4,0.8-0.4
			c0.3,0,0.5,0.1,0.7,0.3c0.3,0.3,0.7,0.7,1,1.2c0.3,0.4,0.6,0.8,1,1.2c0.1,0.1,0.2,0.2,0.3,0.2c0.1,0,0.1,0,0.2-0.1
			c1.3-1.8,2.8-3.6,4.3-5.2c1.6-1.7,3.4-3.2,5.3-4.4c0.1-0.1,0.4-0.3,1.6-0.7c0.8-0.3,1.8-0.6,2.9-0.9c1.1-0.3,2.2-0.6,3.4-0.8
			c1.1-0.2,2-0.3,2.8-0.3l0.3,0c0.9,0,1.6,0.3,2,0.8c0.4,0.6,0.3,1.4-0.4,2.5l-0.1,0.2l-0.2,0c-2.7,0-5.3,0.9-7.7,2.4
			c-2.4,1.6-4.6,3.5-6.7,5.8c-2,2.3-3.9,4.9-5.6,7.6c-1.7,2.7-3.2,5.3-4.4,7.6l-3.1,5.8C250.2,69.9,249.7,70.2,249.2,70.2z"/>
		<path class="st0" d="M247.8,69c-0.1,0-0.1-0.6,0-1.7c0.1-1.1,0.3-2.4,0.5-4c0.2-1.6,0.5-3.4,0.9-5.3c0.4-1.9,0.8-3.8,1.2-5.5
			s0.9-3.3,1.4-4.6s1-2.3,1.4-2.8c0.3-0.3,0.7-0.3,1,0c0.3,0.3,0.7,0.7,1,1.1c0.3,0.4,0.7,0.8,1,1.2c0.3,0.4,0.7,0.4,1.1,0.1
			c1.3-1.8,2.8-3.6,4.3-5.2c1.6-1.7,3.3-3.1,5.2-4.3c0.2-0.1,0.7-0.4,1.5-0.7c0.8-0.3,1.8-0.6,2.9-0.9c1.1-0.3,2.2-0.6,3.3-0.8
			c1.1-0.2,2.1-0.3,3-0.3c0.8,0,1.4,0.2,1.7,0.6c0.3,0.4,0.2,1.1-0.5,2c-2.8,0-5.4,0.9-7.9,2.5c-2.4,1.6-4.7,3.6-6.8,5.9
			c-2.1,2.3-3.9,4.9-5.6,7.6s-3.2,5.3-4.4,7.6c-1.2,2.3-2.3,4.3-3.1,5.8c-0.8,1.5-1.4,2.3-1.8,2.3c0,0-0.3-0.1-0.6-0.3
			C248.2,69.3,247.9,69.1,247.8,69z"/>
		<path class="st0" d="M268.9,69.3c-0.2,0-0.4,0-0.7-0.1c-0.6-0.1-1.1-0.5-1.4-1.1l-0.1-0.1l0-0.1c1.9-6.2,3.7-11.1,5.3-14.8
			c1.6-3.6,2.9-6.2,4-7.7c0.9-1.2,1.5-1.8,2.1-1.8c0.2,0,0.5,0.1,0.7,0.4c0.3,0.4,0.6,1.3,0,4.3c-0.5,2.1-1.4,5-2.8,8.5
			c-1.4,3.5-3.5,7.6-6,12.2l-0.1,0.1l-0.1,0.1C269.5,69.3,269.2,69.3,268.9,69.3z"/>
		<path class="st0" d="M267.3,68c1.9-6.2,3.7-11.1,5.2-14.7c1.6-3.6,2.9-6.2,3.9-7.6c1.1-1.5,1.8-1.9,2.1-1.4
			c0.4,0.5,0.3,1.8-0.1,3.9c-0.4,2.1-1.4,4.9-2.8,8.5c-1.4,3.5-3.4,7.6-6,12.1c-0.4,0.1-0.8,0.2-1.3,0.1
			C267.8,68.8,267.5,68.5,267.3,68z"/>
		<path class="st0" d="M276.2,92.9c-1.6,0-3.2-0.3-4.9-0.9c-1.5-0.5-2.8-1.4-3.7-2.4c-0.9-1.1-1.7-2.2-2.2-3.5
			c-0.5-1.2-0.8-2.5-0.9-3.7c-0.1-1.3-0.1-2.4,0.1-3.3c0.2-1,0.5-1.8,0.9-2.3c0.3-0.4,0.8-0.6,1.2-0.6c0.2,0,0.4,0.1,0.6,0.1
			l0.2,0.1l0,0.3c0,4,0.4,7,1.4,9.1c1,2,2.2,3.2,3.7,3.7c0.6,0.2,1.3,0.3,1.9,0.3c1,0,2.1-0.2,3.3-0.7c2-0.8,4-2,6.1-3.6
			c2.1-1.6,4-3.6,5.9-5.9c1.9-2.3,3.5-4.7,4.8-7.2c1.3-2.5,2.2-4.9,2.8-7.4c0.5-2.2,0.5-4.2,0.1-6c-4,2.9-7.2,4.7-9.5,5.5
			c-1.3,0.4-2.3,0.6-3.2,0.6c-0.9,0-1.5-0.2-2-0.6c-1-0.8-1.4-2.3-1-4.3c0.3-1.9,1.1-4,2.1-6.3c1.1-2.3,2.5-4.6,4.1-6.8
			c1.7-2.3,3.4-4.2,5.1-5.8c1.8-1.6,3.5-2.6,5.2-3c0.4-0.1,0.8-0.2,1.2-0.2c1.3,0,2.4,0.6,3.3,1.8c1.1,1.5,1.8,3.5,2.1,6.1
			c0.3,2.5,0.2,5.3-0.2,8.3c-0.4,3-1.2,6.2-2.2,9.5c-1.1,3.3-2.4,6.5-3.9,9.7c-1.6,3.1-3.3,6.1-5.3,8.7c-2,2.7-4.2,5-6.5,6.8
			c-2.3,1.8-4.8,3.1-7.4,3.7C278.3,92.8,277.2,92.9,276.2,92.9z M286.1,60.4c0.3,0.1,0.6,0.1,0.8,0.1c1,0,2.1-0.4,3.2-1.1
			c1.6-1.1,3-2.4,4.3-4.1c1.3-1.7,2.4-3.4,3.3-5.3c0.9-1.8,1.4-3.4,1.7-4.6c0.3-1.5-0.3-1.6-0.4-1.7c0,0-0.1,0-0.1,0
			c-0.4,0-1.3,0.3-3.4,2.2c-0.6,0.5-1.3,1.2-2.2,2.1c-0.9,0.9-1.9,1.8-2.8,2.9c-0.9,1-1.8,2.1-2.6,3.2c-0.8,1.1-1.4,2-1.7,2.9
			c0,0-0.1,0.2-0.1,0.7c0,0.4,0,0.8,0,1.2s0,0.8,0,1.2C286.1,60.1,286.1,60.3,286.1,60.4z"/>
		<path class="st0" d="M271.5,91.6c-1.5-0.5-2.6-1.3-3.6-2.3c-0.9-1-1.6-2.1-2.1-3.3s-0.8-2.4-0.9-3.6c-0.1-1.2-0.1-2.3,0.1-3.2
			c0.2-0.9,0.4-1.7,0.8-2.1c0.4-0.5,0.9-0.6,1.4-0.4c0,4.1,0.4,7.2,1.4,9.2c1,2.1,2.3,3.4,3.9,3.9c1.6,0.5,3.4,0.4,5.5-0.4
			c2-0.8,4.1-2,6.2-3.7c2.1-1.7,4.1-3.7,6-6s3.5-4.7,4.8-7.2c1.3-2.5,2.2-5,2.8-7.5c0.6-2.5,0.5-4.7-0.1-6.7c-4.2,3-7.5,5-9.8,5.8
			c-2.3,0.8-4,0.8-4.9,0.1c-0.9-0.7-1.2-2-0.9-3.9c0.3-1.9,1-3.9,2.1-6.2c1.1-2.2,2.4-4.5,4.1-6.8c1.6-2.3,3.3-4.2,5.1-5.7
			c1.7-1.5,3.4-2.5,5-3s3,0.1,4,1.5c1.1,1.5,1.8,3.4,2,5.9s0.2,5.2-0.2,8.2c-0.4,3-1.2,6.1-2.2,9.4c-1.1,3.3-2.4,6.5-3.9,9.6
			s-3.3,6-5.3,8.7c-2,2.7-4.1,4.9-6.4,6.7c-2.3,1.8-4.7,3-7.2,3.6S274.1,92.6,271.5,91.6z M285.8,56.8c0,0.1-0.1,0.4-0.1,0.8
			c0,0.4,0,0.8,0,1.2s0,0.8,0,1.2c0,0.4,0.1,0.6,0.1,0.8c1.5,0.4,3,0,4.6-1.1c1.6-1.1,3.1-2.5,4.4-4.1s2.5-3.5,3.4-5.3
			c0.9-1.9,1.5-3.4,1.7-4.7s0-2-0.7-2.1c-0.7-0.2-2,0.6-3.9,2.3c-0.6,0.5-1.3,1.2-2.2,2.1c-0.9,0.9-1.9,1.9-2.8,2.9
			c-1,1-1.9,2.1-2.7,3.2C286.7,54.9,286.1,55.9,285.8,56.8z"/>
		<path class="st0" d="M315,72c-1.6,0-3-0.2-4.1-0.6c-1.5-0.5-2.6-1.3-3.4-2.3c-0.8-1-1.3-2.1-1.5-3.4c-0.2-1.2-0.3-2.5-0.1-3.8
			c0.2-1.3,0.4-2.6,0.8-3.8l0-0.1l0.1-0.1c1.4-1.5,3-3.2,4.7-5.2c1.8-1.9,3.6-3.9,5.6-5.8c2-1.9,4.1-3.7,6.2-5.3
			c2.2-1.6,4.4-2.9,6.6-3.7c0.4-0.2,0.8-0.3,1.1-0.3c0.4,0,0.8,0.1,1.1,0.4c0.5,0.4,0.9,1,1.1,1.9c0.2,0.8,0.3,1.7,0.3,2.7
			c0,1-0.1,2-0.3,2.9c-0.1,1-0.3,1.8-0.6,2.6c-0.3,0.8-0.5,1.4-0.8,1.7c-0.6,0.7-1.7,1.5-3.4,2.4c-1.6,0.9-3.4,1.9-5.4,2.9
			c-2,1-3.9,2.1-5.9,3.3c-1.9,1.1-3.5,2.2-4.8,3.3c-1.2,1-1.9,2.1-2.1,3.1c-0.2,0.9,0.4,1.7,1.7,2.5c0.5,0.1,1.1,0.1,1.7,0.1
			c1.2,0,2.5-0.1,4-0.3c2.3-0.3,4.6-0.8,6.9-1.4c2.3-0.6,4.6-1.2,6.8-1.8c2.2-0.6,4-1.1,5.4-1.5l0.2-0.1l1.3,1.2l-0.2,0.3
			c-1.1,1.4-2.8,2.7-5.2,3.8c-2.4,1.1-4.9,2.1-7.7,2.8c-2.7,0.7-5.4,1.2-8,1.4C316.4,71.9,315.7,72,315,72z M327.8,44.6
			c-0.1,0-0.3,0.2-0.8,0.5c-0.7,0.4-1.5,1-2.4,1.7c-1,0.7-2,1.5-3.1,2.4c-1.1,0.9-2.1,1.7-3,2.4c-0.9,0.7-1.7,1.4-2.3,1.9
			c-0.1,0.1-0.1,0.1-0.2,0.2c0.6,0,1.2-0.1,2-0.4c1.2-0.3,2.4-0.8,3.7-1.5c1.3-0.6,2.5-1.4,3.6-2.2c1.1-0.8,2-1.6,2.7-2.4
			c0.6-0.7,0.9-1.4,1-1.9C328.9,45.1,328.5,44.8,327.8,44.6z"/>
		<path class="st0" d="M311,71c-1.4-0.5-2.5-1.2-3.2-2.1c-0.7-1-1.2-2-1.4-3.2c-0.2-1.2-0.3-2.4-0.1-3.7c0.2-1.3,0.4-2.5,0.8-3.7
			c1.4-1.5,3-3.2,4.7-5.2c1.8-1.9,3.6-3.9,5.6-5.7c2-1.9,4-3.6,6.2-5.2c2.1-1.6,4.3-2.8,6.5-3.7c0.7-0.3,1.3-0.3,1.8,0
			c0.4,0.4,0.8,0.9,0.9,1.7c0.2,0.8,0.3,1.6,0.2,2.6c0,1-0.1,1.9-0.2,2.9c-0.1,0.9-0.3,1.8-0.6,2.5c-0.2,0.8-0.5,1.3-0.7,1.5
			c-0.6,0.7-1.7,1.4-3.3,2.3c-1.6,0.9-3.4,1.9-5.4,2.9s-3.9,2.1-5.9,3.3s-3.6,2.2-4.9,3.3c-1.3,1.1-2,2.2-2.2,3.3
			c-0.2,1.1,0.4,2.1,2,3c1.6,0.2,3.5,0.1,5.8-0.2c2.3-0.4,4.6-0.8,7-1.4c2.4-0.6,4.7-1.2,6.9-1.8c2.2-0.6,4-1.1,5.4-1.5l0.8,0.8
			c-1,1.4-2.7,2.6-5.1,3.7c-2.3,1.1-4.9,2.1-7.6,2.8c-2.7,0.7-5.4,1.2-7.9,1.4C314.5,71.7,312.5,71.5,311,71z M327.8,44.2
			c0,0-0.4,0.2-1.1,0.6c-0.7,0.4-1.5,1-2.4,1.8c-1,0.7-2,1.5-3.1,2.4c-1.1,0.9-2.1,1.7-3,2.4c-0.9,0.8-1.7,1.4-2.3,1.9
			c-0.6,0.5-0.9,0.8-0.8,0.8c0.7,0.1,1.7,0,2.9-0.3s2.4-0.9,3.7-1.5c1.3-0.7,2.5-1.4,3.7-2.2c1.2-0.8,2.1-1.6,2.8-2.4
			c0.7-0.8,1-1.5,1.1-2.1C329.3,44.9,328.8,44.4,327.8,44.2z"/>
		<path class="st0" d="M361.2,70.7c-0.3,0-0.6-0.1-0.9-0.4c-0.5-0.5-0.6-0.7-0.7-0.8l0-0.1l0-0.1c-0.1-1.6,0.1-3.2,0.6-4.7
			c0.5-1.5,1.1-3,1.8-4.5c0.7-1.4,1.5-2.9,2.4-4.4c0.8-1.4,1.6-2.9,2.2-4.2c0.6-1.4,1.1-2.7,1.3-4.1c0.3-1.2,0.2-2.5-0.1-3.7
			c-0.4-0.1-0.9-0.2-1.4-0.2c-0.7,0-1.4,0.1-2.2,0.4c-1.5,0.5-3.1,1.4-4.8,2.5c-1.7,1.2-3.5,2.5-5.4,4.1c-1.9,1.6-3.7,3.2-5.5,4.8
			l-5.1,4.7c-1.6,1.5-3.1,2.7-4.4,3.7c-1.3,1-2.4,1.6-3.3,1.8c-0.2,0.1-0.4,0.1-0.6,0.1c-0.5,0-1.2-0.2-1.5-1.2
			c-0.2-0.2-0.1-0.5,0.9-2.2c0.6-1.1,1.4-2.5,2.4-4.2c0.9-1.7,2-3.5,3.1-5.5c1.1-2,2.2-3.8,3.2-5.5c1-1.7,1.9-3.2,2.6-4.4
			c1.1-1.7,1.4-2,1.6-2.1l0.2-0.1l0.2,0.1c1.1,0.8,1.6,1.6,1.6,2.5c0,0.8-0.2,1.7-0.5,2.5c-0.3,0.8-0.7,1.6-1.1,2.5
			c-0.3,0.6-0.4,1.1-0.3,1.7l2.7-1.7c1.4-0.9,2.9-1.8,4.5-2.7c1.6-0.9,3.3-1.8,5.1-2.7c1.8-0.9,3.4-1.6,5-2c1.6-0.5,3-0.7,4.2-0.7
			c1.3,0,2.3,0.5,2.9,1.3c0.6,0.9,0.7,2.2,0.4,4c-0.3,1.7-1.1,4.1-2.5,7c-0.2,0.3-0.5,1.1-1.1,2.3c-0.6,1.2-1.2,2.5-1.9,3.9
			c-0.7,1.4-1.3,2.7-1.9,3.9l-1.1,2.3c0,0.1-0.1,0.4-0.2,0.9c-0.1,0.5-0.2,1-0.3,1.6c-0.1,0.6-0.3,1.2-0.5,1.7
			c-0.2,0.6-0.5,1-0.9,1.3C361.7,70.6,361.5,70.7,361.2,70.7z"/>
		<path class="st0" d="M360,69.3c-0.1-1.6,0.1-3.1,0.6-4.6c0.5-1.5,1.1-3,1.8-4.4c0.7-1.4,1.5-2.9,2.4-4.3c0.8-1.4,1.6-2.9,2.2-4.3
			c0.6-1.4,1.1-2.8,1.4-4.2c0.3-1.4,0.3-2.7-0.1-4.1c-1.2-0.5-2.5-0.4-4.1,0.1c-1.5,0.5-3.2,1.4-4.9,2.6c-1.7,1.2-3.5,2.6-5.4,4.1
			c-1.9,1.6-3.7,3.2-5.5,4.8c-1.8,1.6-3.5,3.2-5.1,4.7c-1.6,1.5-3.1,2.7-4.3,3.7c-1.3,1-2.4,1.5-3.2,1.8c-0.9,0.2-1.4-0.1-1.7-0.9
			c0,0,0.2-0.6,0.9-1.8c0.6-1.1,1.4-2.5,2.4-4.2c0.9-1.7,2-3.5,3.1-5.5c1.1-2,2.2-3.8,3.2-5.5c1-1.7,1.9-3.2,2.6-4.4
			c0.8-1.2,1.2-1.8,1.4-1.9c1,0.7,1.4,1.4,1.4,2.2c0,0.8-0.2,1.6-0.5,2.4c-0.3,0.8-0.7,1.6-1.1,2.5c-0.4,0.8-0.5,1.7-0.3,2.5
			c0.8-0.5,1.8-1.2,3.2-2c1.4-0.9,2.9-1.7,4.5-2.7c1.6-0.9,3.3-1.8,5-2.7c1.7-0.9,3.4-1.5,4.9-2c1.5-0.5,2.9-0.7,4.1-0.7
			c1.2,0,2.1,0.4,2.6,1.2c0.5,0.8,0.7,2,0.4,3.7c-0.3,1.7-1.1,4-2.5,6.9c-0.2,0.3-0.5,1.1-1.1,2.3c-0.6,1.2-1.2,2.5-1.9,3.9
			c-0.7,1.4-1.3,2.7-1.9,3.9c-0.6,1.2-1,2-1.1,2.3c-0.1,0.2-0.1,0.5-0.2,1c-0.1,0.5-0.2,1-0.3,1.6c-0.1,0.6-0.3,1.1-0.5,1.7
			c-0.2,0.5-0.5,0.9-0.8,1.2c-0.3,0.3-0.6,0.2-1-0.1C360.3,69.6,360.1,69.4,360,69.3z"/>
	</g>
	<g class="st2">
		<path class="st3" d="M280.1,39.5c-0.1-0.1-0.2-0.3-0.2-0.5c0-0.1,0-0.2,0-0.3c0-0.1,0.1-0.2,0.1-0.3l0-0.1l0.1-0.1
			c0.3-0.2,0.5-0.4,0.8-0.5c0.2-0.1,0.5-0.3,0.7-0.4c0.2-0.1,0.5-0.2,0.7-0.4c0.2-0.1,0.3-0.2,0.5-0.3c-0.2-0.1-0.4-0.3-0.7-0.5
			c-0.3-0.2-0.7-0.4-1.2-0.5c-0.5-0.2-2.3-0.9-2.7-1c-0.4-0.2-0.8-0.3-1-0.5c-0.2-0.1-0.5-0.3-0.6-0.7c0-0.3,0.2-0.6,0.8-0.7l0.1,0
			l0.1,0.1c0.2,0.1,0.5,0.2,0.9,0.3c0.4,0.1,0.9,0.2,1.3,0.4c0.5,0.1,1,0.3,1.5,0.4c0.5,0.2,1,0.4,1.4,0.6c0.4,0.3,0.8,0.6,1.1,0.9
			c0.3,0.4,0.4,0.8,0.4,1.4c0,0.3-0.1,0.6-0.3,0.9c-0.2,0.2-0.4,0.5-0.7,0.6c-0.2,0.2-0.5,0.3-0.8,0.5c-0.3,0.1-0.6,0.2-0.8,0.3
			c-0.3,0.1-0.5,0.2-0.7,0.2c-0.2,0.1-0.4,0.1-0.5,0.1l-0.2,0.1L280.1,39.5z"/>
		<path class="st3" d="M283.9,36.8c0,0.3-0.1,0.5-0.2,0.7c-0.1,0.2-0.3,0.4-0.6,0.6c-0.2,0.2-0.5,0.3-0.7,0.4
			c-0.3,0.1-0.5,0.2-0.8,0.3c-0.3,0.1-0.5,0.2-0.7,0.2c-0.2,0.1-0.4,0.1-0.5,0.2c0,0-0.1-0.1-0.1-0.1c0-0.1,0-0.1,0-0.2
			c0-0.1,0-0.2,0.1-0.3c0.2-0.2,0.5-0.4,0.7-0.5c0.2-0.1,0.5-0.3,0.7-0.4s0.5-0.3,0.7-0.4c0.2-0.1,0.5-0.3,0.7-0.5
			c0.1-0.1,0-0.3-0.2-0.5c-0.2-0.2-0.5-0.3-0.8-0.5c-0.4-0.2-0.8-0.4-1.2-0.5c-0.5-0.2-0.9-0.4-1.4-0.5c-0.5-0.2-0.9-0.3-1.3-0.5
			s-0.7-0.3-0.9-0.5c-0.2-0.1-0.4-0.3-0.4-0.4c0-0.1,0.1-0.2,0.5-0.3c0.2,0.1,0.6,0.2,1,0.3c0.4,0.1,0.9,0.2,1.3,0.4
			c0.5,0.1,1,0.3,1.4,0.4c0.5,0.2,0.9,0.4,1.3,0.6c0.4,0.2,0.7,0.5,0.9,0.8C283.8,36,283.9,36.4,283.9,36.8z"/>
	</g>
	<path class="st4" d="M268.3,75.9c-0.1,0.1-0.3,0.2-0.5,0.2c-0.1,0-0.2,0-0.3,0c-0.1,0-0.2-0.1-0.3-0.1l-0.1,0l-0.1-0.1
		c-0.2-0.2-0.4-0.5-0.5-0.8c-0.1-0.2-0.3-0.5-0.4-0.7c-0.1-0.2-0.3-0.5-0.4-0.7c-0.1-0.2-0.2-0.3-0.3-0.5c-0.1,0.2-0.3,0.4-0.4,0.7
		c-0.2,0.3-0.3,0.7-0.5,1.2c-0.2,0.5-0.9,2.3-1,2.7c-0.2,0.4-0.3,0.8-0.5,1c-0.1,0.2-0.3,0.5-0.7,0.6c-0.3,0-0.6-0.2-0.7-0.8l0-0.1
		l0.1-0.1c0.1-0.2,0.2-0.5,0.3-0.9c0.1-0.4,0.2-0.9,0.3-1.3c0.1-0.5,0.3-1,0.4-1.5c0.2-0.5,0.4-1,0.6-1.4c0.3-0.4,0.6-0.8,0.9-1.1
		c0.4-0.3,0.8-0.4,1.4-0.4c0.3,0,0.6,0.1,0.9,0.3c0.2,0.2,0.5,0.4,0.7,0.6c0.2,0.2,0.3,0.5,0.5,0.8c0.1,0.3,0.2,0.6,0.4,0.8
		c0.1,0.3,0.2,0.5,0.3,0.7c0.1,0.2,0.1,0.4,0.2,0.5l0.1,0.2L268.3,75.9z"/>
</g>
</svg>
