<?xml version="1.0" encoding="utf-8"?>
<!-- Generator: Adobe Illustrator 24.3.0, SVG Export Plug-In . SVG Version: 6.00 Build 0)  -->
<svg version="1.1" id="Layer_1" xmlns="http://www.w3.org/2000/svg" xmlns:xlink="http://www.w3.org/1999/xlink" x="0px" y="0px"
	 viewBox="0 0 496.2 496.2" style="enable-background:new 0 0 496.2 496.2;" xml:space="preserve">
<style type="text/css">
	.st0{fill:#D9BF77;}
	.st1{fill:#FFFFFF;}
</style>
<path class="st0" d="M0,248.1C0,111.1,111.1,0,248.1,0c137,0,248.1,111.1,248.1,248.1c0,137-111.1,248.1-248.1,248.1
	C111.1,496.2,0,385.1,0,248.1z"/>
<path class="st1" d="M383.5,206.6h-94.5v-93.9c0-4-3.2-7.2-7.2-7.2h-68.1c-4,0-7.2,3.2-7.2,7.2v93.9h-93.9c-4,0-7.2,3.2-7.2,7.2
	v69.2c0,4,3.2,7.2,7.2,7.2h93.9v93.4c0,4,3.2,7.2,7.2,7.2h68.1c4,0,7.2-3.2,7.2-7.2v-93.4h94.5c4,0,7.2-3.2,7.2-7.2v-69.2
	C390.7,209.8,387.5,206.6,383.5,206.6z"/>
</svg>
